<svg width="510" height="466" viewBox="0 0 510 466" fill="none" xmlns="http://www.w3.org/2000/svg">
<g clip-path="url(#clip0_4325_736)">
<path d="M415.703 378.741H124.111C112.699 378.741 103.426 369.458 103.426 358.033V138.815C103.426 127.389 112.699 118.107 124.111 118.107H415.703C427.115 118.107 436.388 127.389 436.388 138.815V358.033C436.388 369.458 427.115 378.741 415.703 378.741ZM124.111 119.392C113.412 119.392 104.71 128.104 104.71 138.815V358.033C104.71 368.744 113.412 377.456 124.111 377.456H415.703C426.402 377.456 435.104 368.744 435.104 358.033V138.815C435.104 128.104 426.402 119.392 415.703 119.392H124.111Z" fill="#B3DCFF"/>
<path d="M449.942 120.106V339.325C449.942 350.464 440.955 359.461 429.827 359.461H138.378C127.251 359.461 118.264 350.464 118.264 339.325V120.106C118.264 108.967 127.251 99.9694 138.378 99.9694H429.97C440.955 99.9694 449.942 108.967 449.942 120.106Z" fill="#E3F2FF"/>
<path d="M449.942 120.106V125.819H118.264V120.106C118.264 108.967 127.251 99.9694 138.378 99.9694H429.97C440.955 99.9694 449.942 108.967 449.942 120.106Z" fill="#4DA8F2"/>
<path d="M249.507 200.367H155.924C151.644 200.367 148.221 196.94 148.221 192.655V168.091C148.221 163.807 151.644 160.379 155.924 160.379H249.507C253.787 160.379 257.211 163.807 257.211 168.091V192.655C257.354 196.94 253.787 200.367 249.507 200.367Z" fill="#B3DCFF"/>
<path d="M249.508 254.208H155.925C151.36 254.208 147.508 250.495 147.508 245.782V221.361C147.508 216.791 151.217 212.935 155.925 212.935H249.508C254.073 212.935 257.925 216.648 257.925 221.361V245.925C257.925 250.495 254.215 254.208 249.508 254.208ZM155.925 214.22C152.073 214.22 148.792 217.362 148.792 221.361V245.925C148.792 249.781 151.93 253.065 155.925 253.065H249.508C253.36 253.065 256.641 249.923 256.641 245.925V221.361C256.641 217.505 253.502 214.22 249.508 214.22H155.925Z" fill="#B3DCFF"/>
<path d="M368.769 273.202H283.888C282.747 273.202 281.891 272.345 281.891 271.203V268.775C281.891 267.632 282.747 266.775 283.888 266.775H368.769C369.91 266.775 370.766 267.632 370.766 268.775V271.203C370.766 272.345 369.768 273.202 368.769 273.202Z" fill="#B3DCFF"/>
<path d="M368.769 296.623H283.888C282.747 296.623 281.891 295.766 281.891 294.624V292.196C281.891 291.054 282.747 290.197 283.888 290.197H368.769C369.91 290.197 370.766 291.054 370.766 292.196V294.624C370.766 295.766 369.768 296.623 368.769 296.623Z" fill="#B3DCFF"/>
<path d="M409.284 254.208H292.876C286.456 254.208 281.178 248.924 281.178 242.497V171.376C281.178 164.949 286.456 159.665 292.876 159.665H409.284C415.704 159.665 420.982 164.949 420.982 171.376V242.64C420.982 249.067 415.704 254.208 409.284 254.208ZM292.876 160.951C287.169 160.951 282.462 165.664 282.462 171.376V242.64C282.462 248.352 287.169 253.065 292.876 253.065H409.284C414.99 253.065 419.698 248.352 419.698 242.64V171.376C419.698 165.664 414.99 160.951 409.284 160.951H292.876Z" fill="#B3DCFF"/>
<path d="M404.291 275.201L396.873 268.775C396.302 268.204 396.16 267.347 396.73 266.775C397.301 266.204 398.157 266.061 398.728 266.633L404.006 271.203L411.424 262.919C411.995 262.348 412.851 262.205 413.421 262.777C413.992 263.348 414.135 264.205 413.564 264.776L404.291 275.201Z" fill="#4DA8F2"/>
<path d="M404.291 300.194L396.873 293.767C396.302 293.196 396.16 292.339 396.73 291.768C397.301 291.196 398.157 291.054 398.728 291.625L404.006 296.195L411.424 287.912C411.995 287.34 412.851 287.198 413.421 287.769C413.992 288.34 414.135 289.197 413.564 289.768L404.291 300.194Z" fill="#4DA8F2"/>
<path d="M368.769 321.616H283.888C282.747 321.616 281.891 320.759 281.891 319.616V317.188C281.891 316.046 282.747 315.189 283.888 315.189H368.769C369.91 315.189 370.766 316.046 370.766 317.188V319.616C370.766 320.759 369.768 321.616 368.769 321.616Z" fill="#B3DCFF"/>
<path d="M404.291 325.186L396.873 318.759C396.302 318.188 396.16 317.331 396.73 316.76C397.301 316.189 398.157 316.046 398.728 316.617L404.006 321.187L411.424 312.904C411.995 312.333 412.851 312.19 413.421 312.761C413.992 313.332 414.135 314.189 413.564 314.761L404.291 325.186Z" fill="#4DA8F2"/>
<g opacity="0.83">
<path opacity="0.83" d="M239.095 0H64.1967C55.0666 0 47.6484 7.4263 47.6484 16.5664V118.249C47.6484 127.39 55.0666 134.816 64.1967 134.816H239.095C248.225 134.816 255.643 127.39 255.643 118.249V16.5664C255.643 7.4263 248.225 0 239.095 0Z" fill="#E0F1FF"/>
</g>
<path d="M86.5926 78.2617C89.5884 79.2614 92.8695 79.8327 96.2933 79.9755C106.565 80.1183 115.695 75.2626 121.401 67.8363C125.395 62.6951 127.821 56.1256 127.963 49.1278C127.963 48.4137 127.963 47.6997 127.963 46.9856C127.821 43.8437 127.107 40.8446 126.109 37.9883C121.829 26.1348 110.416 17.566 97.1492 17.4232C89.8737 17.2804 83.3114 19.7082 77.8904 23.707C70.4723 29.2767 65.6219 38.274 65.4793 48.2709C65.1939 62.1238 74.1814 74.1201 86.5926 78.2617ZM73.1828 48.4137C73.3254 40.8446 76.8918 34.2752 82.4555 29.9908C86.4499 26.8489 91.5856 25.1351 97.0065 25.1351C106.993 25.278 115.552 31.7046 118.69 40.559C119.404 42.7012 119.974 44.9862 120.117 47.2712C120.117 47.8425 120.117 48.2709 120.117 48.8422C120.117 54.1263 118.262 58.9819 115.267 62.9807C110.844 68.5504 104.139 72.1207 96.4359 72.1207C93.8681 72.1207 91.4429 71.6923 89.1604 70.8354C79.745 67.6935 73.0401 58.8391 73.1828 48.4137Z" fill="#78C2FF"/>
<path d="M115.266 62.9807L121.4 67.8363C115.551 75.2626 106.421 80.1183 96.2925 79.9755C92.8687 79.9755 89.7303 79.4042 86.5918 78.2617L89.1596 70.8354C91.4421 71.5495 93.8673 71.9779 96.4352 72.1207C103.996 72.2636 110.844 68.6932 115.266 62.9807Z" fill="#1A598C"/>
<path d="M126.11 37.9883L118.691 40.7018C119.69 43.4152 120.118 46.2715 120.118 48.985C120.118 54.2691 118.263 59.1247 115.268 63.1235L121.402 67.9791C125.396 62.8379 127.821 56.2685 127.964 49.2706C127.964 45.2718 127.393 41.4159 126.11 37.9883Z" fill="#2273B5"/>
<path d="M77.8906 23.5642C83.1689 19.5654 89.8738 17.1376 97.1494 17.2804C110.559 17.4232 121.829 25.992 126.109 37.8455L118.691 40.559C115.552 31.7046 106.993 25.278 97.0067 25.1352C91.5857 25.1352 86.4501 26.8489 82.4557 29.9908L77.8906 23.5642Z" fill="#4DA8F2"/>
<path d="M180.747 180.516C180.747 180.373 180.747 180.088 180.747 179.945V179.802C180.747 178.66 180.462 177.517 180.034 176.517C178.465 172.09 174.185 168.948 169.192 168.805C166.482 168.805 164.056 169.662 162.059 171.09C159.349 173.233 157.494 176.517 157.494 180.23C157.494 185.372 160.775 189.799 165.34 191.37C166.482 191.798 167.623 191.941 168.907 191.941C170.333 191.941 171.76 191.656 172.901 191.227C175.041 190.513 176.896 189.085 178.179 187.371C179.463 185.657 180.319 183.658 180.605 181.373C180.747 181.087 180.747 180.802 180.747 180.516ZM160.347 180.23C160.347 177.374 161.774 174.946 163.771 173.375C165.198 172.233 167.195 171.519 169.192 171.519C172.901 171.519 176.04 173.947 177.324 177.231C177.609 178.088 177.751 178.802 177.894 179.802C177.894 179.945 177.894 180.23 177.894 180.373C177.894 181.23 177.751 182.087 177.466 182.801C177.181 183.801 176.61 184.8 176.04 185.657C175.754 185.943 175.612 186.229 175.326 186.514C173.757 188.085 171.475 189.085 169.049 189.085C168.336 189.085 167.765 188.942 167.195 188.799C166.91 188.799 166.624 188.656 166.339 188.514C162.772 187.514 160.347 184.086 160.347 180.23Z" fill="#E3F2FF"/>
<path d="M222.26 116.536H162.772C154.783 116.536 148.221 109.966 148.221 101.969V31.8474C148.221 23.8498 154.783 17.2804 162.772 17.2804H222.26C230.249 17.2804 236.811 23.8498 236.811 31.8474V101.969C236.811 110.109 230.249 116.536 222.26 116.536Z" fill="#78C2FF"/>
<path d="M127.679 100.683H69.6171C67.7625 100.683 66.3359 99.2553 66.3359 97.3987V96.9703C66.3359 95.1137 67.7625 93.6855 69.6171 93.6855H127.679C129.533 93.6855 130.96 95.1137 130.96 96.9703V97.3987C130.96 99.2553 129.533 100.683 127.679 100.683Z" fill="#B3DCFF"/>
<path d="M127.679 116.536H69.6171C67.7625 116.536 66.3359 115.108 66.3359 113.251V112.823C66.3359 110.966 67.7625 109.538 69.6171 109.538H127.679C129.533 109.538 130.96 110.966 130.96 112.823V113.251C130.96 115.108 129.533 116.536 127.679 116.536Z" fill="#B3DCFF"/>
<g opacity="0.78">
<path opacity="0.78" d="M478.901 249.638H362.492C356.358 249.638 351.508 244.639 351.508 238.641V167.377C351.508 161.236 356.501 156.381 362.492 156.381H478.901C485.035 156.381 489.885 161.379 489.885 167.377V238.498C489.885 244.639 484.892 249.638 478.901 249.638Z" fill="#4DA8F2"/>
</g>
<path d="M407.715 206.937H369.483C367.2 206.937 365.346 205.08 365.346 202.795V171.662C365.346 169.377 367.2 167.52 369.483 167.52H407.715C409.997 167.52 411.852 169.377 411.852 171.662V202.795C411.852 205.08 409.997 206.937 407.715 206.937Z" fill="#E3F2FF"/>
<path d="M477.188 177.945H422.265C420.981 177.945 419.84 176.803 419.84 175.518V169.805C419.84 168.52 420.981 167.377 422.265 167.377H477.188C478.472 167.377 479.613 168.52 479.613 169.805V175.518C479.613 176.946 478.472 177.945 477.188 177.945Z" fill="#E3F2FF"/>
<path d="M477.188 194.512H422.265C420.981 194.512 419.84 193.369 419.84 192.084V186.371C419.84 185.086 420.981 183.944 422.265 183.944H477.188C478.472 183.944 479.613 185.086 479.613 186.371V192.084C479.613 193.369 478.472 194.512 477.188 194.512Z" fill="#E3F2FF"/>
<path d="M477.331 236.785H456.075C454.792 236.785 453.793 235.785 453.793 234.5V233.5C453.793 232.215 454.792 231.215 456.075 231.215H477.331C478.615 231.215 479.614 232.215 479.614 233.5V234.5C479.614 235.785 478.615 236.785 477.331 236.785Z" fill="#E3F2FF"/>
<path d="M463.209 272.202C463.209 272.202 461.069 268.346 464.493 257.921C467.917 247.924 479.615 248.781 483.324 255.208C487.033 261.634 485.749 265.633 480.328 272.916C474.907 280.2 465.492 275.63 463.209 272.202Z" fill="#EEA886"/>
<path d="M490.455 450.862C490.455 450.862 491.026 455.146 491.168 455.717C491.311 456.289 497.588 455.289 497.588 455.289L498.159 450.148C498.159 450.291 491.311 450.148 490.455 450.862Z" fill="#EEA886"/>
<path d="M491.027 455.146C491.027 455.146 489.03 457.717 487.033 458.859C485.035 460.002 482.04 460.43 480.898 461.573C480.042 462.43 477.902 466 486.034 466C494.165 465.857 498.017 466.571 499.016 465.143C499.872 463.715 497.732 455.003 497.732 455.003C497.732 455.003 495.735 455.432 491.027 455.146Z" fill="#5377B3"/>
<path d="M446.232 450.862C446.232 450.862 446.803 455.146 446.946 455.717C447.088 456.289 453.365 455.289 453.365 455.289L453.936 450.148C453.936 450.291 447.088 450.148 446.232 450.862Z" fill="#EEA886"/>
<path d="M446.803 455.146C446.803 455.146 444.806 457.717 442.808 458.859C440.811 460.002 433.678 460.859 432.537 462.001C431.681 462.858 430.255 466.143 441.81 465.857C449.941 465.572 453.793 466.428 454.792 465C455.648 463.572 453.508 454.861 453.508 454.861C453.508 454.861 450.94 455.289 446.803 455.146Z" fill="#5B83C2"/>
<path d="M488.316 344.609C488.316 344.609 491.597 354.748 491.169 363.603C490.741 372.314 492.881 382.026 493.737 391.166C494.735 401.448 498.73 425.584 498.872 431.011C499.015 436.438 498.302 454.004 498.302 454.004L490.313 454.146C490.313 454.146 483.608 411.874 481.896 407.446C480.184 403.162 471.625 372.314 471.339 368.887C471.054 365.602 488.316 344.609 488.316 344.609Z" fill="#2F4563"/>
<path d="M455.506 343.609C455.506 343.609 450.655 370.601 450.085 375.885C449.514 381.312 449.086 401.877 448.801 405.304C448.515 408.732 446.946 449.291 445.377 454.289H454.222C454.222 454.289 463.352 424.727 463.352 410.874C463.352 396.878 469.343 380.455 473.195 371.315C477.047 362.032 485.892 361.889 488.317 344.751C488.317 344.609 458.644 338.182 455.506 343.609Z" fill="#354C70"/>
<path d="M466.49 275.059C466.49 275.059 467.488 277.915 466.49 280.057C465.491 282.199 479.186 280.914 479.186 280.914C479.186 280.914 478.615 276.629 480.327 273.059C482.182 269.489 466.49 275.059 466.49 275.059Z" fill="#EEA886"/>
<path d="M489.029 346.894C489.029 346.894 484.036 352.035 455.076 346.037L455.504 343.609L488.458 344.894L489.029 346.894Z" fill="#2B3B57"/>
<path d="M464.35 280.628C464.35 280.628 459.214 281.2 457.787 281.485C456.361 281.771 446.517 279.771 444.52 279.486C442.523 279.343 433.964 273.488 433.678 272.774C433.393 272.059 428.543 259.635 428.257 256.921C427.972 254.208 423.407 255.636 423.835 257.493C424.548 260.92 425.547 269.346 425.975 271.917C426.545 274.487 427.972 280.485 428.828 281.342C429.684 282.056 437.387 287.912 444.806 290.482C452.366 292.91 458.073 296.623 458.073 296.623H495.164C495.164 296.623 509.572 275.915 509.857 272.916C510.143 269.774 499.729 249.067 497.731 246.496C495.592 243.925 492.596 247.353 492.596 247.353C492.596 247.353 498.873 265.633 499.586 268.203C500.442 270.774 492.31 282.199 490.171 282.199C488.031 282.199 482.324 281.485 479.757 281.342C477.189 281.2 474.621 280.2 474.621 280.2L464.35 280.628Z" fill="#EEA886"/>
<path d="M448.371 294.481C448.371 294.481 452.936 297.48 453.364 302.622C453.792 307.763 455.504 316.046 456.218 318.759C457.074 321.616 455.504 341.895 455.219 343.323C454.934 344.751 483.893 348.179 488.315 344.751C488.315 344.751 489.599 325.757 490.027 320.33C490.598 314.903 493.023 301.907 493.879 300.051C494.735 298.337 504.721 284.199 505.149 282.342C505.149 282.342 500.013 274.059 496.162 273.916C496.162 273.916 490.17 280.914 488.315 281.2C486.318 281.485 474.478 279.343 474.478 279.343C474.478 279.343 473.194 281.057 466.346 279.057C466.346 279.057 458.215 279.914 456.788 280.2C455.219 280.343 443.949 278.772 443.949 278.772C443.949 278.772 439.527 286.341 440.24 290.197L448.371 294.481Z" fill="#7C7C7C"/>
<path d="M428.542 258.492C428.542 258.492 427.544 253.637 428.685 252.351C429.398 251.637 431.11 249.495 431.253 249.209C431.396 248.924 433.25 247.924 433.25 247.353C433.25 246.924 431.538 246.21 429.969 247.638C428.4 249.067 427.544 249.352 426.831 249.209C426.26 249.067 425.404 243.925 425.261 242.783C425.119 241.497 424.691 238.213 423.977 238.498C423.121 238.784 423.264 240.212 423.264 240.212C423.264 240.212 422.408 237.641 421.695 238.213C421.124 238.641 421.124 239.926 421.124 239.926C421.124 239.926 419.983 238.498 419.698 239.498C419.412 240.498 419.698 241.497 419.698 241.497C419.698 241.497 418.556 240.783 418.414 242.497C418.271 244.068 418.699 248.781 419.555 250.495C420.411 252.208 423.549 256.636 423.977 258.349C424.405 259.778 428.542 258.492 428.542 258.492Z" fill="#EEA886"/>
<path d="M493.879 250.066C493.879 250.066 490.455 244.211 489.314 243.782C488.173 243.211 486.461 242.926 485.034 241.926C483.608 240.926 481.611 240.069 481.753 239.641C481.896 239.355 483.608 239.498 485.462 240.212C487.317 241.069 488.03 240.641 488.316 240.212C488.458 239.784 487.317 236.927 486.746 236.213C486.176 235.499 482.324 231.5 482.895 230.929C483.608 230.358 486.176 232.5 486.461 232.929C486.461 232.929 484.464 228.644 485.177 228.501C486.033 228.359 487.46 229.787 487.46 229.787C487.46 229.787 487.317 226.074 491.169 232.072C491.169 232.072 490.313 230.072 491.597 230.786C492.738 231.5 494.022 235.071 494.307 237.07C494.735 238.927 496.447 244.925 497.874 246.353C499.3 247.638 493.879 250.066 493.879 250.066Z" fill="#EEA886"/>
<path d="M480.327 273.059C480.327 273.059 478.473 273.202 474.621 271.917C470.769 270.631 470.484 263.776 469.628 264.633C467.916 266.204 466.347 265.204 465.634 264.205C465.634 264.205 467.488 261.777 466.632 260.492C465.776 259.349 464.35 258.349 464.35 258.349C464.35 258.349 467.06 245.211 479.471 251.209C494.022 258.207 480.327 273.059 480.327 273.059Z" fill="#353A3D"/>
<path d="M466.49 279.914L466.918 278.058C466.918 278.058 474.764 277.915 479.187 278.486L479.615 280.771C479.615 280.771 474.051 283.342 466.49 279.914Z" fill="#7C7C7C"/>
<path d="M468.344 262.919C469.058 261.777 471.768 260.92 472.053 264.348C472.339 266.918 467.346 269.774 467.203 267.347C467.203 264.776 467.916 263.633 468.344 262.919Z" fill="#EEA886"/>
<path d="M428.4 257.35C428.4 257.35 425.547 257.35 424.12 258.635C424.12 258.635 423.978 259.492 424.406 260.063C424.406 260.063 426.831 258.921 428.828 258.635C428.828 258.778 428.686 257.778 428.4 257.35Z" fill="#E55353"/>
<path d="M425.119 258.064C424.834 258.635 425.119 259.349 425.832 259.635C426.403 259.92 427.116 259.635 427.402 258.921C427.687 258.207 427.402 257.635 426.688 257.35C425.975 257.207 425.262 257.493 425.119 258.064Z" fill="#353A3D"/>
<g opacity="0.78">
<path opacity="0.78" d="M192.73 258.778H99.1469C94.8671 258.778 91.4434 255.35 91.4434 251.066V226.502C91.4434 222.218 94.8671 218.79 99.1469 218.79H192.73C197.01 218.79 200.434 222.218 200.434 226.502V251.066C200.434 255.35 197.01 258.778 192.73 258.778Z" fill="#4DA8F2"/>
</g>
<path d="M6.56277 336.754C6.56277 336.754 6.99074 339.039 8.27465 339.467C9.41591 339.753 10.5572 340.895 10.9851 341.324C11.5558 341.752 13.553 342.752 12.9823 343.323C12.4117 344.037 9.41591 342.038 8.70263 341.752C7.98934 341.467 8.98794 344.751 8.70263 345.465C8.41731 346.18 2.99633 347.608 2.56836 345.323C2.14039 343.038 3.13899 340.181 2.99633 339.896C2.85367 339.467 2.56836 338.182 2.56836 338.182L6.56277 336.754Z" fill="#EEA886"/>
<path d="M8.8446 344.894C8.8446 344.894 9.70055 352.035 9.41523 352.606C9.12992 353.177 8.70195 353.177 8.55929 352.463C8.41663 351.749 7.56069 345.608 7.56069 345.608C7.56069 345.608 7.13271 354.177 6.8474 354.748C6.70474 355.034 5.99146 355.177 5.8488 354.748C5.70614 354.463 5.70614 345.751 5.70614 345.751C5.70614 345.751 5.27817 353.892 4.99285 354.177C4.70754 354.463 3.99425 354.463 3.99425 353.749C3.99425 353.177 3.99425 345.608 3.99425 345.608C3.99425 345.608 3.28097 351.464 2.85299 351.607C2.56768 351.749 1.99705 351.749 2.13971 350.321C2.42502 348.75 2.56768 345.18 2.56768 345.18L8.8446 344.894Z" fill="#EEA886"/>
<path d="M83.5977 248.638C83.5977 248.638 84.7389 246.496 85.1669 244.639C85.5949 242.926 87.7347 240.498 88.5907 239.926C89.4466 239.355 96.0089 234.785 96.7221 234.785C97.4354 234.785 97.0074 236.213 96.4368 236.642C95.7235 237.07 90.5879 241.212 90.5879 241.212C90.5879 241.212 97.1501 236.642 97.8634 236.785C98.5767 236.927 99.0047 237.784 98.2914 238.641C98.2914 238.641 99.7179 239.641 98.2914 240.783L95.1529 243.211C95.1529 243.211 97.0074 242.211 96.2942 243.782C95.8662 244.496 92.1571 246.781 91.5865 247.496C91.0158 248.21 86.1655 250.495 86.1655 250.495L83.5977 248.638Z" fill="#EEA886"/>
<path d="M45.2232 450.005H46.7924C46.7924 450.005 46.2218 443.864 47.791 443.864C49.3602 443.864 53.0693 448.862 55.2092 449.576C57.4917 450.291 68.9043 451.005 68.9043 448.862C68.9043 446.72 64.4819 445.863 63.198 445.292C61.7714 444.721 55.0665 438.151 53.9253 437.295C52.784 436.58 50.7868 432.582 50.7868 432.582H44.6525C44.6525 432.582 43.9393 435.866 43.6539 438.58C43.5113 439.58 43.3686 440.436 43.3686 441.15C43.226 443.435 45.2232 450.005 45.2232 450.005Z" fill="#EEA886"/>
<path d="M17.1189 448.72H18.4028V443.007C19.5441 443.15 23.2532 446.72 24.5371 447.72C25.6784 448.72 27.2476 448.72 32.2406 449.005C37.2336 449.291 37.6616 446.435 36.8056 445.292C36.0924 444.292 33.5245 443.864 32.2406 443.15C30.9567 442.579 25.6784 436.723 24.3945 435.295C22.9679 433.867 22.1119 430.011 22.1119 430.011L16.4056 430.582C16.4056 430.582 16.4056 434.153 15.835 437.295C15.835 437.58 15.6924 437.866 15.6924 438.009C14.6938 441.293 17.1189 448.72 17.1189 448.72Z" fill="#EEA886"/>
<path d="M30.5285 258.064C30.5285 258.064 27.6754 264.062 29.2446 268.918C29.2446 268.918 20.5425 267.775 20.3998 266.775C20.1145 265.776 21.5411 256.636 20.5425 253.922C19.4012 250.923 30.5285 258.064 30.5285 258.064Z" fill="#EEA886"/>
<path d="M30.8135 266.918C30.8135 266.918 35.8065 269.06 38.089 269.774C40.3716 270.489 45.0793 273.059 44.0807 281.485C43.0821 289.911 41.0849 297.052 40.3716 300.765C39.5156 304.335 39.2303 313.618 39.8009 318.188C39.8009 318.188 27.2471 320.33 12.9814 316.189C12.9814 316.189 16.1198 308.763 16.1198 306.763C16.2625 304.764 8.84429 287.912 8.70164 285.341C8.55898 282.77 7.56038 271.345 11.6974 269.06C15.8345 266.775 18.973 267.347 20.6849 266.347C22.2541 265.062 28.3884 265.918 30.8135 266.918Z" fill="#7C7C7C"/>
<path d="M30.8138 279.914C30.8138 279.914 28.9592 269.774 38.6599 269.774C47.2194 269.774 55.3508 268.204 56.7774 267.347C58.204 266.633 63.3396 264.062 66.1928 261.206C68.9033 258.349 83.8823 246.924 83.8823 246.924L88.0194 251.066C88.0194 251.066 72.1844 268.204 69.6166 269.917C67.0487 271.631 45.6501 283.485 42.9396 283.913C40.2291 284.484 32.6683 286.484 30.8138 279.914Z" fill="#7C7C7C"/>
<path d="M0.000553688 311.19C-0.284761 314.761 1.71244 339.325 1.71244 339.325L8.70265 340.181C8.70265 340.181 8.27468 315.903 7.84671 310.333C7.70405 308.62 8.13202 306.192 8.70265 303.478C9.13062 301.765 9.5586 299.908 9.98657 298.194C11.2705 293.339 12.6971 289.197 12.6971 289.197C12.6971 289.197 20.5432 268.918 10.6999 269.774C10.6999 269.774 7.13342 273.488 5.56419 279.629C3.99496 285.627 2.14041 294.767 2.14041 298.48C2.14041 302.193 0.285868 308.477 0.000553688 311.19Z" fill="#7C7C7C"/>
<path d="M38.0904 317.76C38.0904 317.76 40.3729 323.044 40.5156 324.472C40.6582 325.757 47.7911 343.323 48.2191 348.465C48.6471 353.606 50.2163 367.459 50.7869 369.458C51.3575 371.458 49.6457 380.312 49.3603 382.311C49.075 384.311 49.2177 416.729 51.6429 432.725C51.6429 432.725 46.0792 435.152 41.7995 432.725C41.7995 432.725 34.8093 407.732 35.2373 393.308C35.6652 378.884 37.5198 372.743 35.2373 367.03C32.9547 361.175 19.9729 343.752 18.5464 341.895C17.2624 340.039 8.98831 329.756 16.8345 318.759C24.538 307.62 38.0904 317.76 38.0904 317.76Z" fill="#EDDAD3"/>
<path d="M10.9848 365.031C11.6981 369.601 10.9848 375.742 9.55825 392.737C8.13167 409.732 12.1261 430.154 12.1261 430.154C17.1191 431.868 22.968 430.154 22.968 430.154C22.8254 429.011 22.968 388.881 22.968 385.31C22.968 381.74 23.9666 377.741 24.252 373.6C24.3946 370.744 25.6785 365.602 27.2478 360.461C27.6757 358.89 28.1037 357.319 28.5317 355.748C28.817 354.891 28.9596 354.034 29.245 353.177C31.2422 346.037 34.0953 318.474 34.0953 318.474C34.0953 318.474 18.831 306.049 11.2701 317.76C3.85195 329.328 7.7037 337.896 7.84636 339.325C7.98902 340.753 10.2715 360.461 10.9848 365.031Z" fill="#EDDAD3"/>
<path d="M40.6576 296.909C40.6576 296.909 39.231 318.759 43.3681 331.184C43.3681 331.184 27.2478 333.898 6.5625 326.9C6.5625 326.9 12.2688 312.19 11.9835 309.905C11.8408 307.62 5.84921 280.771 8.70236 274.773C11.5555 268.775 39.659 277.344 40.6576 296.909Z" fill="#7C7C7C"/>
<path d="M27.3897 233.643C31.0988 233.5 40.5142 234.928 38.8023 249.209C37.0904 263.491 31.9547 262.205 26.8191 260.349C21.6834 258.492 16.4051 246.924 16.5478 243.925C16.8331 240.926 16.8331 234.071 27.3897 233.643Z" fill="#EEA886"/>
<path d="M38.8035 242.497C38.8035 242.497 34.2384 247.496 30.1014 248.495C30.1014 248.495 26.5349 253.922 20.8286 255.065C20.8286 255.065 9.70138 242.783 20.4007 234.928C30.9573 227.073 39.2314 238.213 38.8035 242.497Z" fill="#353A3D"/>
<path d="M30.9562 246.639C30.8136 245.782 29.2443 244.068 27.8178 245.782C26.3912 247.496 28.531 251.78 29.387 251.923C30.2429 251.923 31.2415 249.638 30.9562 246.639Z" fill="#EEA886"/>
<path d="M17.4043 340.181C17.547 340.467 25.1078 357.462 27.105 360.318C27.533 358.747 27.9609 357.176 28.3889 355.605C28.3889 355.605 17.547 340.61 17.4043 340.181Z" fill="#C9B9B3"/>
<path d="M8.27422 285.912C8.27422 285.912 7.70359 296.766 8.55953 303.336C8.98751 301.622 9.41548 299.765 9.84345 298.051C9.84345 297.766 8.41688 287.626 8.27422 285.912Z" fill="#444444"/>
<path d="M24.6804 232.643C24.6804 232.643 11.8412 232.357 13.6958 254.493C15.1224 271.488 8.98809 279.914 9.84403 282.342C10.7 284.77 13.6958 288.911 20.5433 285.198C27.2482 281.485 22.8259 261.92 26.5349 254.351C30.1014 246.782 38.0902 243.211 38.0902 243.211C38.0902 243.211 36.521 230.501 24.6804 232.643Z" fill="#353A3D"/>
<path d="M41.9419 277.486C41.9419 277.486 44.9377 288.055 45.651 290.482C46.507 293.767 42.3699 299.765 38.6608 297.909C34.8091 296.052 41.9419 277.486 41.9419 277.486Z" fill="#7C7C7C"/>
<path d="M17.1194 448.72H18.4033V443.007C19.5446 443.15 23.2536 446.72 24.5376 447.72C25.6788 448.72 27.248 448.72 32.2411 449.005C37.2341 449.291 37.662 446.435 36.8061 445.292C36.0928 444.292 33.525 443.864 32.2411 443.15C26.9627 443.435 20.5432 436.009 17.4047 436.009C15.6928 436.009 15.8355 436.866 15.6928 437.152C15.6928 437.437 15.5501 437.723 15.5501 437.866C14.6942 441.293 17.1194 448.72 17.1194 448.72Z" fill="#DBCAC3"/>
<path d="M45.2218 450.005H46.791C46.791 450.005 46.2204 443.864 47.7896 443.864C49.3589 443.864 53.068 448.862 55.2078 449.576C57.4903 450.29 68.9029 451.005 68.9029 448.862C68.9029 446.72 64.4806 445.863 63.1966 445.292C58.4889 445.292 50.7854 440.151 48.5029 439.008C46.0778 438.009 43.5099 438.58 43.5099 438.58C43.3673 439.58 43.2246 440.436 43.2246 441.15C43.2246 443.435 45.2218 450.005 45.2218 450.005Z" fill="#DBCAC3"/>
<path d="M150.504 286.769H140.518V322.901H150.504V286.769Z" fill="#78C2FF"/>
<path d="M164.627 283.056H154.641V322.758H164.627V283.056Z" fill="#78C2FF"/>
<path d="M178.892 290.625H168.906V322.758H178.892V290.625Z" fill="#78C2FF"/>
<path d="M193.3 275.773H183.314V322.901H193.3V275.773Z" fill="#78C2FF"/>
<path d="M208.279 280.485H198.293V322.901H208.279V280.485Z" fill="#78C2FF"/>
<path d="M223.545 286.769H213.559V322.901H223.545V286.769Z" fill="#78C2FF"/>
<path d="M237.668 283.056H227.682V322.758H237.668V283.056Z" fill="#78C2FF"/>
<path d="M251.933 290.625H241.947V322.758H251.933V290.625Z" fill="#78C2FF"/>
<path d="M125.253 237.499V237.356C125.253 236.213 124.968 235.071 124.54 234.071C122.971 229.644 118.691 226.502 113.698 226.359C110.987 226.359 108.562 227.216 106.565 228.644C103.855 230.786 102 234.071 102 237.784C102 242.926 105.281 247.353 109.846 248.924C110.987 249.352 112.129 249.495 113.413 249.495C114.839 249.495 116.266 249.209 117.55 248.781C119.547 248.067 121.401 246.639 122.685 244.925C123.969 243.211 124.825 241.212 125.11 238.927C125.11 238.641 125.11 238.213 125.11 237.927C125.253 237.927 125.253 237.641 125.253 237.499ZM104.853 237.784C104.853 234.928 106.28 232.5 108.277 230.929C109.703 229.787 111.701 229.073 113.698 229.073C117.407 229.073 120.545 231.5 121.829 234.785C122.115 235.642 122.257 236.356 122.4 237.356C122.4 237.499 122.4 237.784 122.4 237.927C122.4 238.784 122.257 239.641 121.972 240.355C121.687 241.355 121.116 242.354 120.545 243.211C120.26 243.497 120.117 243.782 119.832 244.068C118.263 245.639 115.98 246.639 113.555 246.639C112.842 246.639 112.271 246.496 111.701 246.353C111.415 246.353 111.13 246.21 110.845 246.067C107.278 245.068 104.853 241.64 104.853 237.784Z" fill="#E3F2FF"/>
<g opacity="0.74">
<path opacity="0.74" d="M381.894 409.017H304.146C298.725 409.017 294.16 404.59 294.16 399.021V342.466C294.16 337.04 298.583 332.47 304.146 332.47H381.894C387.315 332.47 391.88 336.897 391.88 342.466V399.021C391.88 404.59 387.458 409.017 381.894 409.017Z" fill="#4DA8F2"/>
</g>
<path d="M379.896 399.877H345.087C341.806 399.877 338.953 397.164 338.953 393.879V346.751C338.953 343.466 341.664 340.61 345.087 340.61H379.896C383.177 340.61 386.03 343.323 386.03 346.751V393.879C386.03 397.164 383.32 399.877 379.896 399.877Z" fill="#E3F2FF"/>
<path d="M325.83 348.893H307.998C306.001 348.893 304.289 347.179 304.289 345.18V344.18C304.289 342.181 306.001 340.467 307.998 340.467H325.83C327.828 340.467 329.539 342.181 329.539 344.18V345.18C329.539 347.322 327.97 348.893 325.83 348.893Z" fill="#E3F2FF"/>
<path d="M325.83 364.745H307.998C306.001 364.745 304.289 363.032 304.289 361.032V360.032C304.289 358.033 306.001 356.319 307.998 356.319H325.83C327.828 356.319 329.539 358.033 329.539 360.032V361.032C329.539 363.032 327.97 364.745 325.83 364.745Z" fill="#E3F2FF"/>
</g>
<defs>
<clipPath id="clip0_4325_736">
<rect width="510" height="466" fill="white"/>
</clipPath>
</defs>
</svg>
